<?xml version="1.0" encoding="utf-8"?>
<!-- Generator: Adobe Illustrator 24.2.3, SVG Export Plug-In . SVG Version: 6.00 Build 0)  -->
<svg version="1.1" id="Layer_1" xmlns="http://www.w3.org/2000/svg" xmlns:xlink="http://www.w3.org/1999/xlink" x="0px" y="0px"
	 viewBox="0 0 40 24" style="enable-background:new 0 0 40 24;" xml:space="preserve">
<style type="text/css">
	.st0{fill:#4B97D2;}
</style>
<g>
	<path class="st0" d="M11.88,24C5.33,24,0,18.62,0,12C0,5.38,5.33,0,11.88,0c0.6,0,1.08,0.49,1.08,1.09s-0.48,1.09-1.08,1.09
		c-5.36,0-9.72,4.4-9.72,9.82s4.36,9.82,9.72,9.82c0.6,0,1.08,0.49,1.08,1.09S12.48,24,11.88,24z"/>
	<path class="st0" d="M11.88,20.73c-0.6,0-1.08-0.49-1.08-1.09s0.48-1.09,1.08-1.09c3.57,0,6.48-2.94,6.48-6.55
		c0-3.61-2.91-6.55-6.48-6.55c-0.6,0-1.08-0.49-1.08-1.09s0.48-1.09,1.08-1.09c4.77,0,8.64,3.92,8.64,8.73S16.65,20.73,11.88,20.73z
		"/>
	<path class="st0" d="M10.8,16.91c-2.38,0-4.32-1.96-4.32-4.36c0-0.6,0.48-1.09,1.08-1.09s1.08,0.49,1.08,1.09
		c0,1.2,0.97,2.18,2.16,2.18c1.19,0,2.16-0.98,2.16-2.18c0-0.6,0.48-1.09,1.08-1.09c0.6,0,1.08,0.49,1.08,1.09
		C15.13,14.95,13.19,16.91,10.8,16.91z"/>
</g>
</svg>
