<?xml version="1.0" encoding="utf-8"?>
<!-- Generator: Adobe Illustrator 24.2.3, SVG Export Plug-In . SVG Version: 6.00 Build 0)  -->
<svg version="1.1" id="Layer_1" xmlns="http://www.w3.org/2000/svg" xmlns:xlink="http://www.w3.org/1999/xlink" x="0px" y="0px"
	 viewBox="0 0 74 51" style="enable-background:new 0 0 74 51;" xml:space="preserve">
<style type="text/css">
	.st0{fill:#4B97D2;}
</style>
<g>
	<g>
		<path class="st0" d="M19.3,45.48C8.66,45.48,0,36.35,0,25.12C0,13.9,8.66,4.77,19.3,4.77c0.97,0,1.75,0.83,1.75,1.85
			s-0.79,1.85-1.75,1.85c-8.71,0-15.79,7.47-15.79,16.66s7.08,16.66,15.79,16.66c0.97,0,1.75,0.83,1.75,1.85
			C21.06,44.65,20.27,45.48,19.3,45.48z"/>
		<path class="st0" d="M19.3,39.93c-0.97,0-1.75-0.83-1.75-1.85s0.79-1.85,1.75-1.85c5.81,0,10.53-4.98,10.53-11.1
			c0-6.12-4.72-11.1-10.53-11.1c-0.97,0-1.75-0.83-1.75-1.85s0.79-1.85,1.75-1.85c7.74,0,14.04,6.64,14.04,14.8
			S27.04,39.93,19.3,39.93z"/>
		<path class="st0" d="M17.55,33.45c-3.87,0-7.02-3.32-7.02-7.4c0-1.02,0.79-1.85,1.75-1.85s1.75,0.83,1.75,1.85
			c0,2.04,1.57,3.7,3.51,3.7c1.93,0,3.51-1.66,3.51-3.7c0-1.02,0.79-1.85,1.75-1.85c0.97,0,1.75,0.83,1.75,1.85
			C24.56,30.13,21.42,33.45,17.55,33.45z"/>
	</g>
	<g>
		<path class="st0" d="M45.34,10.95v7.77h-2.05v-7.77H45.34z"/>
		<path class="st0" d="M48.71,12.77c0.3-0.6,0.73-1.07,1.29-1.4c0.56-0.33,1.2-0.5,1.92-0.5c0.92,0,1.69,0.26,2.32,0.78
			s1.03,1.22,1.21,2.11h-2.21c-0.13-0.29-0.32-0.52-0.55-0.67c-0.23-0.15-0.5-0.23-0.81-0.23c-0.47,0-0.85,0.18-1.13,0.53
			s-0.42,0.83-0.42,1.43c0,0.6,0.14,1.08,0.42,1.44c0.28,0.36,0.66,0.53,1.13,0.53c0.31,0,0.58-0.08,0.81-0.23
			c0.23-0.15,0.42-0.38,0.55-0.67h2.21c-0.18,0.89-0.58,1.59-1.21,2.11c-0.63,0.52-1.4,0.78-2.32,0.78c-0.72,0-1.37-0.17-1.92-0.5
			c-0.56-0.33-0.99-0.8-1.29-1.4c-0.3-0.6-0.46-1.28-0.46-2.06C48.25,14.05,48.4,13.37,48.71,12.77z"/>
		<path class="st0" d="M56.42,13.95c0.22-0.48,0.52-0.84,0.9-1.1c0.38-0.26,0.8-0.39,1.27-0.39c0.4,0,0.75,0.08,1.04,0.25
			c0.29,0.17,0.52,0.4,0.68,0.68v-0.86h2.05v6.18h-2.05v-0.86c-0.16,0.29-0.39,0.51-0.68,0.68s-0.64,0.25-1.04,0.25
			c-0.47,0-0.89-0.13-1.27-0.39s-0.68-0.63-0.9-1.11c-0.22-0.48-0.33-1.04-0.33-1.68C56.09,14.98,56.2,14.42,56.42,13.95z M60,14.68
			c-0.21-0.23-0.46-0.34-0.76-0.34c-0.31,0-0.56,0.11-0.76,0.34s-0.3,0.54-0.3,0.94c0,0.4,0.1,0.71,0.3,0.94s0.46,0.35,0.76,0.35
			c0.3,0,0.55-0.11,0.76-0.34c0.21-0.23,0.31-0.54,0.31-0.95C60.31,15.22,60.21,14.91,60,14.68z"/>
		<path class="st0" d="M68.97,13.19c0.4,0.47,0.6,1.12,0.6,1.92v3.6h-2.05V15.4c0-0.35-0.09-0.63-0.26-0.83
			c-0.17-0.2-0.41-0.3-0.7-0.3c-0.31,0-0.55,0.1-0.72,0.3s-0.26,0.48-0.26,0.83v3.32h-2.05v-6.18h2.05v0.88
			c0.18-0.28,0.42-0.5,0.73-0.68c0.31-0.17,0.66-0.26,1.05-0.26C68.04,12.48,68.58,12.72,68.97,13.19z"/>
		<path class="st0" d="M39.61,22.88c0.3-0.6,0.73-1.07,1.29-1.4c0.56-0.33,1.2-0.5,1.92-0.5c0.92,0,1.69,0.26,2.32,0.78
			c0.63,0.52,1.03,1.22,1.21,2.11h-2.21c-0.13-0.29-0.32-0.52-0.55-0.67c-0.23-0.15-0.5-0.23-0.81-0.23c-0.47,0-0.85,0.18-1.13,0.53
			s-0.42,0.83-0.42,1.43c0,0.6,0.14,1.08,0.42,1.44s0.66,0.53,1.13,0.53c0.31,0,0.58-0.08,0.81-0.23c0.23-0.15,0.42-0.38,0.55-0.67
			h2.21c-0.18,0.89-0.58,1.59-1.21,2.11c-0.63,0.52-1.4,0.78-2.32,0.78c-0.72,0-1.37-0.17-1.92-0.5c-0.56-0.33-0.99-0.8-1.29-1.4
			c-0.3-0.6-0.46-1.28-0.46-2.06C39.15,24.16,39.3,23.47,39.61,22.88z"/>
		<path class="st0" d="M48.48,28.51c-0.46-0.26-0.83-0.62-1.09-1.1c-0.26-0.48-0.4-1.04-0.4-1.69c0-0.64,0.13-1.2,0.4-1.68
			c0.27-0.48,0.63-0.84,1.1-1.1c0.46-0.26,0.99-0.39,1.57-0.39s1.11,0.13,1.57,0.39c0.46,0.26,0.83,0.62,1.1,1.1
			c0.27,0.48,0.4,1.04,0.4,1.68c0,0.64-0.13,1.2-0.4,1.68c-0.27,0.48-0.64,0.85-1.1,1.11s-0.99,0.39-1.58,0.39
			S48.94,28.77,48.48,28.51z M50.77,26.69c0.19-0.22,0.29-0.54,0.29-0.96s-0.1-0.74-0.29-0.96s-0.43-0.33-0.71-0.33
			c-0.28,0-0.51,0.11-0.7,0.33c-0.19,0.22-0.28,0.54-0.28,0.96c0,0.43,0.09,0.75,0.27,0.97c0.18,0.22,0.41,0.33,0.7,0.33
			S50.57,26.91,50.77,26.69z"/>
		<path class="st0" d="M53.96,24.05c0.22-0.48,0.52-0.84,0.9-1.1c0.38-0.26,0.8-0.39,1.27-0.39c0.4,0,0.75,0.08,1.04,0.25
			c0.29,0.17,0.52,0.4,0.68,0.68v-0.86h2.05v6.18h-2.05v-0.86c-0.16,0.29-0.39,0.51-0.68,0.68c-0.3,0.17-0.64,0.25-1.04,0.25
			c-0.47,0-0.89-0.13-1.27-0.39s-0.68-0.63-0.9-1.11s-0.33-1.04-0.33-1.68C53.63,25.08,53.74,24.53,53.96,24.05z M57.55,24.79
			c-0.21-0.23-0.46-0.34-0.76-0.34c-0.31,0-0.56,0.11-0.76,0.34c-0.2,0.22-0.3,0.54-0.3,0.94c0,0.4,0.1,0.71,0.3,0.94
			s0.46,0.35,0.76,0.35c0.3,0,0.55-0.11,0.76-0.34c0.21-0.23,0.31-0.54,0.31-0.95C57.86,25.33,57.75,25.02,57.55,24.79z"/>
		<path class="st0" d="M61.12,24.05c0.25-0.48,0.6-0.84,1.05-1.1c0.45-0.26,0.96-0.39,1.54-0.39c0.75,0,1.37,0.21,1.88,0.64
			s0.84,1.03,0.98,1.8H64.4c-0.13-0.4-0.37-0.61-0.73-0.61c-0.26,0-0.46,0.11-0.61,0.34c-0.15,0.22-0.22,0.55-0.22,0.99
			s0.08,0.76,0.22,0.99c0.15,0.23,0.35,0.34,0.61,0.34c0.37,0,0.61-0.2,0.73-0.61h2.17c-0.15,0.76-0.47,1.36-0.98,1.8
			s-1.14,0.65-1.88,0.65c-0.58,0-1.09-0.13-1.54-0.39c-0.45-0.26-0.8-0.62-1.05-1.1c-0.25-0.48-0.38-1.04-0.38-1.69
			C60.74,25.08,60.87,24.53,61.12,24.05z"/>
		<path class="st0" d="M72.87,23.29c0.39,0.47,0.59,1.12,0.59,1.92v3.6h-2.05V25.5c0-0.35-0.09-0.63-0.26-0.83
			c-0.17-0.2-0.41-0.3-0.7-0.3c-0.31,0-0.55,0.1-0.72,0.3s-0.26,0.48-0.26,0.83v3.32h-2.05v-8.16h2.05v2.86
			c0.18-0.28,0.43-0.51,0.74-0.68c0.31-0.17,0.67-0.26,1.07-0.26C71.94,22.58,72.47,22.82,72.87,23.29z"/>
		<path class="st0" d="M53.12,31.15l-2.59,5.3v2.47h-2.06v-2.47l-2.59-5.3h2.34l1.3,3l1.29-3H53.12z"/>
		<path class="st0" d="M54.9,38.62c-0.46-0.26-0.83-0.62-1.09-1.1c-0.26-0.48-0.4-1.04-0.4-1.69c0-0.64,0.13-1.2,0.4-1.68
			c0.27-0.48,0.63-0.84,1.1-1.1c0.46-0.26,0.99-0.39,1.57-0.39s1.11,0.13,1.57,0.39c0.46,0.26,0.83,0.62,1.1,1.1
			c0.27,0.48,0.4,1.04,0.4,1.68c0,0.64-0.13,1.2-0.4,1.68c-0.27,0.48-0.64,0.85-1.1,1.11S57.06,39,56.48,39S55.37,38.87,54.9,38.62z
			 M57.19,36.79c0.19-0.22,0.29-0.54,0.29-0.96s-0.1-0.74-0.29-0.96s-0.43-0.33-0.71-0.33c-0.28,0-0.51,0.11-0.7,0.33
			c-0.19,0.22-0.28,0.54-0.28,0.96c0,0.43,0.09,0.75,0.27,0.97c0.18,0.22,0.41,0.33,0.7,0.33S57,37.02,57.19,36.79z"/>
		<path class="st0" d="M66.39,32.74v6.18h-2.06v-0.88c-0.17,0.28-0.41,0.51-0.72,0.68c-0.31,0.17-0.66,0.26-1.06,0.26
			c-0.68,0-1.22-0.24-1.61-0.71c-0.39-0.47-0.59-1.12-0.59-1.93v-3.59h2.04v3.32c0,0.35,0.09,0.63,0.27,0.83s0.41,0.3,0.71,0.3
			c0.3,0,0.54-0.1,0.71-0.3c0.17-0.2,0.26-0.48,0.26-0.83v-3.32H66.39z"/>
	</g>
</g>
<g>
</g>
<g>
</g>
<g>
</g>
<g>
</g>
<g>
</g>
</svg>
